<?xml version="1.0" encoding="utf-8"?>
<!-- Generator: Adobe Illustrator 28.0.0, SVG Export Plug-In . SVG Version: 6.00 Build 0)  -->
<svg version="1.1" id="レイヤー_1" xmlns="http://www.w3.org/2000/svg" xmlns:xlink="http://www.w3.org/1999/xlink" x="0px"
	 y="0px" viewBox="0 0 160.9 17.4" style="enable-background:new 0 0 160.9 17.4;" xml:space="preserve">
<style type="text/css">
	.st0{display:none;fill:#FFFFFF;}
	.st1{fill:#FFFFFF;}
</style>
<path id="パス_10" class="st0" d="M7.3,0.3c1.3,0,2.7,0.2,3.9,0.7c1,0.4,1.9,1.2,2.5,2.1c0.6,1,0.9,2.1,0.9,3.2
	c0,1.1-0.3,2.3-0.9,3.2c-0.6,0.9-1.5,1.7-2.5,2.1c-1.2,0.5-2.5,0.8-3.9,0.7H3.9v4.6H0V0.3H7.3z M7.1,9.3C8,9.4,8.9,9.1,9.7,8.5
	c0.6-0.5,1-1.3,0.9-2.1c0.1-0.8-0.3-1.6-0.9-2.2C8.9,3.7,8,3.4,7.1,3.5H3.9v5.8L7.1,9.3z M26.1,17.4c-1.6,0-3.3-0.4-4.7-1.1
	c-1.4-0.7-2.5-1.8-3.3-3.1c-0.8-1.3-1.2-2.9-1.2-4.5c0-1.6,0.4-3.1,1.2-4.5c0.8-1.3,1.9-2.4,3.3-3.1C22.9,0.4,24.5,0,26.1,0
	c1.6,0,3.3,0.4,4.7,1.1c1.4,0.7,2.5,1.8,3.3,3.1c0.8,1.3,1.2,2.9,1.2,4.5c0,1.6-0.4,3.1-1.2,4.5c-0.8,1.3-1.9,2.4-3.3,3.1
	C29.4,17,27.8,17.4,26.1,17.4z M26.1,14.1c0.9,0,1.9-0.2,2.7-0.7c0.8-0.4,1.4-1.1,1.9-1.9c0.5-0.9,0.7-1.8,0.7-2.8
	c0-1-0.2-1.9-0.7-2.8c-0.4-0.8-1.1-1.5-1.9-1.9c-0.8-0.5-1.7-0.7-2.7-0.7c-0.9,0-1.9,0.2-2.7,0.7c-0.8,0.4-1.4,1.1-1.9,1.9
	c-0.5,0.9-0.7,1.8-0.7,2.8c0,1,0.2,1.9,0.7,2.8c0.4,0.8,1.1,1.5,1.9,1.9C24.3,13.8,25.2,14.1,26.1,14.1z M54.1,0.3v16.8h-3.2
	L42.5,6.9v10.2h-3.8V0.3h3.2l8.4,10.2V0.3H54.1z M65.7,0.3h7.6c1.7,0,3.3,0.3,4.8,1C79.6,2,80.7,3,81.5,4.3c0.8,1.3,1.2,2.9,1.2,4.4
	c0,1.6-0.4,3.1-1.2,4.4c-0.8,1.3-1.9,2.3-3.3,2.9c-1.5,0.7-3.2,1.1-4.8,1h-7.6V0.3z M73.2,13.9c1.5,0.1,2.9-0.4,4-1.4
	c1-1,1.6-2.4,1.5-3.8c0.1-1.4-0.5-2.8-1.5-3.8c-1.1-1-2.5-1.5-4-1.4h-3.6v10.4H73.2z M99,14v3.1H86V0.3h12.7v3.1h-8.8v3.6h7.8v3
	h-7.8V14H99z M108,17.4c-1.3,0-2.6-0.2-3.9-0.5c-1.1-0.3-2.1-0.8-3-1.4l1.3-2.9c0.8,0.6,1.6,1,2.6,1.3c1,0.3,2,0.5,3,0.5
	c0.8,0.1,1.7-0.1,2.4-0.5c0.5-0.3,0.8-0.8,0.8-1.3c0-0.4-0.2-0.8-0.5-1c-0.4-0.3-0.8-0.5-1.2-0.6c-0.5-0.2-1.1-0.3-2-0.5
	c-1.1-0.2-2.1-0.5-3.1-0.9c-0.8-0.3-1.5-0.8-2.1-1.5c-0.6-0.8-0.9-1.7-0.9-2.7c0-0.9,0.3-1.9,0.8-2.7c0.6-0.8,1.4-1.5,2.4-1.9
	c1.2-0.5,2.6-0.7,3.9-0.7c1.1,0,2.1,0.1,3.1,0.4c0.9,0.2,1.9,0.6,2.7,1.1l-1.2,3c-1.4-0.8-3-1.3-4.7-1.3c-0.8-0.1-1.7,0.1-2.4,0.5
	c-0.5,0.3-0.8,0.8-0.8,1.4c0,0.6,0.4,1.1,0.9,1.3c0.9,0.4,1.8,0.6,2.7,0.8c1.1,0.2,2.1,0.5,3.1,0.9c0.8,0.3,1.5,0.8,2.1,1.4
	c0.6,0.7,0.9,1.7,0.9,2.7c0,0.9-0.3,1.9-0.8,2.6c-0.6,0.8-1.4,1.5-2.4,1.9C110.7,17.2,109.4,17.4,108,17.4z M118.3,0.3h3.9v16.8
	h-3.9V0.3z M137.9,8.4h3.6v6.8c-1,0.7-2,1.2-3.2,1.6c-1.2,0.4-2.4,0.6-3.6,0.6c-1.6,0-3.3-0.4-4.7-1.1c-1.4-0.7-2.5-1.8-3.3-3.1
	c-0.8-1.4-1.2-2.9-1.2-4.5c0-1.6,0.4-3.1,1.2-4.5c0.8-1.3,1.9-2.4,3.3-3.1c1.5-0.8,3.1-1.1,4.8-1.1c1.4,0,2.7,0.2,4,0.7
	c1.2,0.5,2.2,1.2,3,2.2l-2.5,2.3c-1.1-1.2-2.7-1.9-4.3-1.9c-1,0-2,0.2-2.9,0.7c-0.8,0.4-1.5,1.1-1.9,1.9c-0.5,0.9-0.7,1.8-0.7,2.8
	c0,1,0.2,1.9,0.7,2.8c0.5,0.8,1.1,1.5,1.9,1.9c0.9,0.5,1.8,0.7,2.8,0.7c1.1,0,2.1-0.2,3-0.7L137.9,8.4z M160.9,0.3v16.8h-3.2
	l-8.4-10.2v10.2h-3.8V0.3h3.2l8.4,10.2V0.3H160.9z"/>
<g>
	<path class="st1" d="M26.5,10.8V8.7h4.8v4.3c-0.9,0.6-1.7,1-2.4,1.3s-1.5,0.3-2.5,0.3c-1.2,0-2.2-0.2-2.9-0.6
		c-0.7-0.4-1.3-1-1.7-1.8c-0.4-0.8-0.6-1.7-0.6-2.8c0-1.1,0.2-2,0.7-2.9s1.1-1.4,2-1.8c0.7-0.3,1.6-0.5,2.7-0.5
		c1.1,0,1.9,0.1,2.5,0.3s1,0.5,1.4,0.9s0.6,1,0.8,1.6l-3,0.5c-0.1-0.4-0.3-0.7-0.6-0.9s-0.7-0.3-1.1-0.3c-0.7,0-1.2,0.2-1.6,0.7
		s-0.6,1.2-0.6,2.2c0,1.1,0.2,1.9,0.6,2.3s1,0.7,1.7,0.7c0.3,0,0.7-0.1,1-0.2c0.3-0.1,0.7-0.3,1.1-0.5v-0.9H26.5z"/>
	<path class="st1" d="M34.9,4.4h3.4l2,3.4l2-3.4h3.4l-3.9,5.8v4.2h-3.1v-4.2L34.9,4.4z"/>
	<path class="st1" d="M48.4,9.4c0-1.6,0.5-2.9,1.4-3.8s2.2-1.4,3.8-1.4c1.7,0,3,0.4,3.9,1.3s1.4,2.1,1.4,3.8c0,1.2-0.2,2.1-0.6,2.9
		c-0.4,0.8-1,1.3-1.7,1.8s-1.7,0.6-2.8,0.6c-1.1,0-2.1-0.2-2.8-0.5c-0.7-0.4-1.3-0.9-1.8-1.7S48.4,10.6,48.4,9.4z M51.5,9.4
		c0,1,0.2,1.7,0.6,2.2c0.4,0.4,0.9,0.7,1.5,0.7c0.7,0,1.2-0.2,1.5-0.6c0.4-0.4,0.5-1.2,0.5-2.3c0-0.9-0.2-1.6-0.6-2.1
		s-0.9-0.7-1.5-0.7c-0.6,0-1.1,0.2-1.5,0.7S51.5,8.4,51.5,9.4z"/>
	<path class="st1" d="M70.8,4.4h4.6c0.9,0,1.6,0.1,2.2,0.4s1,0.6,1.4,1.1s0.6,1,0.8,1.6S80,8.7,80,9.3c0,1.1-0.1,1.9-0.4,2.5
		c-0.2,0.6-0.6,1.1-1,1.5c-0.4,0.4-0.9,0.7-1.4,0.8c-0.7,0.2-1.3,0.3-1.8,0.3h-4.6V4.4z M73.9,6.6v5.5h0.8c0.6,0,1.1-0.1,1.4-0.2
		s0.5-0.4,0.6-0.8c0.2-0.4,0.2-0.9,0.2-1.7c0-1.1-0.2-1.8-0.5-2.2s-0.9-0.6-1.7-0.6H73.9z"/>
	<path class="st1" d="M84.4,4.4h8.3v2.1h-5.2v1.6h4.8v2h-4.8v2h5.3v2.3h-8.4V4.4z"/>
	<path class="st1" d="M96.8,11.1l2.9-0.2c0.1,0.5,0.2,0.8,0.4,1.1c0.3,0.4,0.8,0.6,1.4,0.6c0.4,0,0.8-0.1,1-0.3
		c0.2-0.2,0.4-0.4,0.4-0.7c0-0.3-0.1-0.5-0.3-0.7s-0.8-0.4-1.6-0.6C99.6,10,98.6,9.6,98,9.1c-0.6-0.5-0.9-1.2-0.9-1.9
		c0-0.5,0.1-1,0.4-1.5c0.3-0.5,0.7-0.8,1.3-1.1c0.6-0.3,1.4-0.4,2.5-0.4c1.3,0,2.3,0.2,2.9,0.7c0.7,0.5,1.1,1.2,1.2,2.3l-2.9,0.2
		c-0.1-0.5-0.2-0.8-0.5-1c-0.2-0.2-0.6-0.3-1-0.3c-0.4,0-0.6,0.1-0.8,0.2S100,6.6,100,6.8c0,0.2,0.1,0.3,0.2,0.4
		c0.1,0.1,0.5,0.3,1,0.4c1.4,0.3,2.3,0.6,2.9,0.9c0.6,0.3,1,0.7,1.3,1.1c0.3,0.4,0.4,0.9,0.4,1.5c0,0.6-0.2,1.2-0.5,1.8
		c-0.4,0.5-0.9,1-1.5,1.2s-1.4,0.4-2.4,0.4c-1.7,0-2.9-0.3-3.5-1S96.9,12.1,96.8,11.1z"/>
	<path class="st1" d="M110.4,4.4h3.1v10h-3.1V4.4z"/>
	<path class="st1" d="M123.5,10.8V8.7h4.8v4.3c-0.9,0.6-1.7,1-2.4,1.3c-0.7,0.2-1.5,0.3-2.5,0.3c-1.2,0-2.2-0.2-2.9-0.6
		c-0.7-0.4-1.3-1-1.7-1.8c-0.4-0.8-0.6-1.7-0.6-2.8c0-1.1,0.2-2,0.7-2.9s1.1-1.4,2-1.8c0.7-0.3,1.6-0.5,2.7-0.5
		c1.1,0,1.9,0.1,2.5,0.3c0.5,0.2,1,0.5,1.4,0.9c0.4,0.4,0.6,1,0.8,1.6l-3,0.5c-0.1-0.4-0.3-0.7-0.6-0.9c-0.3-0.2-0.7-0.3-1.1-0.3
		c-0.7,0-1.2,0.2-1.6,0.7c-0.4,0.5-0.6,1.2-0.6,2.2c0,1.1,0.2,1.9,0.6,2.3c0.4,0.5,1,0.7,1.7,0.7c0.3,0,0.7-0.1,1-0.2
		c0.3-0.1,0.7-0.3,1.1-0.5v-0.9H123.5z"/>
	<path class="st1" d="M133,4.4h2.9l3.8,5.5V4.4h2.9v10h-2.9l-3.8-5.5v5.5H133V4.4z"/>
</g>
</svg>
